HIERARCHY
ROOT Hips
{
  OFFSET 5.84602e-005 68.8428 3.50346
  CHANNELS 6 Xposition Yposition Zposition Zrotation Xrotation Yrotation
  JOINT Spine
  {
    OFFSET 0 8.597 -4.6522
    CHANNELS 3 Zrotation Xrotation Yrotation
    JOINT Spine1
    {
      OFFSET 0 7.8454 0.4098
      CHANNELS 3 Zrotation Xrotation Yrotation
      JOINT Spine2
      {
        OFFSET 0 9.7078 -2.1609
        CHANNELS 3 Zrotation Xrotation Yrotation
        JOINT Neck
        {
          OFFSET 0 21.8761 -0.4549
          CHANNELS 3 Zrotation Xrotation Yrotation
          JOINT Head
          {
            OFFSET 0 12.3537 3.3602
            CHANNELS 3 Zrotation Xrotation Yrotation
            End Site
            {
              OFFSET 0.0001 18.9506 0.5657
            }
          }
        }
        JOINT LeftShoulder
        {
          OFFSET 2.2086 21.1115 7.2329
          CHANNELS 3 Zrotation Xrotation Yrotation
          JOINT LeftArm
          {
            OFFSET 13.1193 3.0282 -4.8998
            CHANNELS 3 Zrotation Xrotation Yrotation
            JOINT LeftForeArm
            {
              OFFSET 27.4081 -0.0973053 -0.2375
              CHANNELS 3 Zrotation Xrotation Yrotation
              JOINT LeftHand
              {
                OFFSET 22.8641 0.0662994 -0.1369
                CHANNELS 3 Zrotation Xrotation Yrotation
                JOINT LeftHandIndex1
                {
                  OFFSET 8.8614 0.775009 2.4612
                  CHANNELS 3 Zrotation Xrotation Yrotation
                  JOINT LeftHandIndex2
                  {
                    OFFSET 3.3146 -0.808304 0.5841
                    CHANNELS 3 Zrotation Xrotation Yrotation
                    JOINT LeftHandIndex3
                    {
                      OFFSET 2.2628 -0.552002 0.3989
                      CHANNELS 3 Zrotation Xrotation Yrotation
                      End Site
                      {
                        OFFSET 1.6102 -0.4807 0.2612
                      }
                    }
                  }
                }
                JOINT LeftHandMiddle1
                {
                  OFFSET 8.9937 0.895004 0.2143
                  CHANNELS 3 Zrotation Xrotation Yrotation
                  JOINT LeftHandMiddle2
                  {
                    OFFSET 4.0984 0.0113983 -0.0242
                    CHANNELS 3 Zrotation Xrotation Yrotation
                    JOINT LeftHandMiddle3
                    {
                      OFFSET 2.2716 0.00689697 -0.0138001
                      CHANNELS 3 Zrotation Xrotation Yrotation
                      End Site
                      {
                        OFFSET 2.0404 -0.1441 0.0027
                      }
                    }
                  }
                }
                JOINT LeftHandRing1
                {
                  OFFSET 8.5234 0.597198 -2.0164
                  CHANNELS 3 Zrotation Xrotation Yrotation
                  JOINT LeftHandRing2
                  {
                    OFFSET 3.7188 -0.188293 -0.2328
                    CHANNELS 3 Zrotation Xrotation Yrotation
                    JOINT LeftHandRing3
                    {
                      OFFSET 2.1191 -0.106598 -0.1332
                      CHANNELS 3 Zrotation Xrotation Yrotation
                      End Site
                      {
                        OFFSET 1.8737 -0.2304 -0.0886
                      }
                    }
                  }
                }
                JOINT LeftHandPinky1
                {
                  OFFSET 7.9094 -0.601089 -3.4825
                  CHANNELS 3 Zrotation Xrotation Yrotation
                  JOINT LeftHandPinky2
                  {
                    OFFSET 2.2874 -0.477005 -0.6314
                    CHANNELS 3 Zrotation Xrotation Yrotation
                    JOINT LeftHandPinky3
                    {
                      OFFSET 1.6774 -0.349396 -0.4633
                      CHANNELS 3 Zrotation Xrotation Yrotation
                      End Site
                      {
                        OFFSET 1.4888 -0.4091 -0.3416
                      }
                    }
                  }
                }
                JOINT LeftHandThumb1
                {
                  OFFSET 1.833 -1.3875 1.3896
                  CHANNELS 3 Zrotation Xrotation Yrotation
                  JOINT LeftHandThumb2
                  {
                    OFFSET 3.4129 -1.121 2.5732
                    CHANNELS 3 Zrotation Xrotation Yrotation
                    JOINT LeftHandThumb3
                    {
                      OFFSET 2.2474 -0.804199 1.6192
                      CHANNELS 3 Zrotation Xrotation Yrotation
                      End Site
                      {
                        OFFSET 1.6527 -0.5689 1.1317
                      }
                    }
                  }
                }
              }
            }
          }
        }
        JOINT RightShoulder
        {
          OFFSET -2.2086 21.1115 7.2329
          CHANNELS 3 Zrotation Xrotation Yrotation
          JOINT RightArm
          {
            OFFSET -13.1216 3.0287 -4.9007
            CHANNELS 3 Zrotation Xrotation Yrotation
            JOINT RightForeArm
            {
              OFFSET -27.4081 -0.0973053 -0.2375
              CHANNELS 3 Zrotation Xrotation Yrotation
              JOINT RightHand
              {
                OFFSET -22.8641 0.0664063 -0.1369
                CHANNELS 3 Zrotation Xrotation Yrotation
                JOINT RightHandIndex1
                {
                  OFFSET -8.8614 0.774994 2.4612
                  CHANNELS 3 Zrotation Xrotation Yrotation
                  JOINT RightHandIndex2
                  {
                    OFFSET -3.3146 -0.808304 0.5841
                    CHANNELS 3 Zrotation Xrotation Yrotation
                    JOINT RightHandIndex3
                    {
                      OFFSET -2.2628 -0.552002 0.3989
                      CHANNELS 3 Zrotation Xrotation Yrotation
                      End Site
                      {
                        OFFSET -1.6102 -0.4807 0.2612
                      }
                    }
                  }
                }
                JOINT RightHandMiddle1
                {
                  OFFSET -8.9937 0.894989 0.2143
                  CHANNELS 3 Zrotation Xrotation Yrotation
                  JOINT RightHandMiddle2
                  {
                    OFFSET -4.0984 0.0113983 -0.0242
                    CHANNELS 3 Zrotation Xrotation Yrotation
                    JOINT RightHandMiddle3
                    {
                      OFFSET -2.2716 0.00691223 -0.0138001
                      CHANNELS 3 Zrotation Xrotation Yrotation
                      End Site
                      {
                        OFFSET -2.0404 -0.1441 0.0027
                      }
                    }
                  }
                }
                JOINT RightHandRing1
                {
                  OFFSET -8.5234 0.597198 -2.0164
                  CHANNELS 3 Zrotation Xrotation Yrotation
                  JOINT RightHandRing2
                  {
                    OFFSET -3.7188 -0.188309 -0.2328
                    CHANNELS 3 Zrotation Xrotation Yrotation
                    JOINT RightHandRing3
                    {
                      OFFSET -2.1191 -0.106598 -0.1332
                      CHANNELS 3 Zrotation Xrotation Yrotation
                      End Site
                      {
                        OFFSET -1.8737 -0.2304 -0.0886
                      }
                    }
                  }
                }
                JOINT RightHandPinky1
                {
                  OFFSET -7.9094 -0.601105 -3.4825
                  CHANNELS 3 Zrotation Xrotation Yrotation
                  JOINT RightHandPinky2
                  {
                    OFFSET -2.2874 -0.477005 -0.6314
                    CHANNELS 3 Zrotation Xrotation Yrotation
                    JOINT RightHandPinky3
                    {
                      OFFSET -1.6774 -0.349396 -0.4633
                      CHANNELS 3 Zrotation Xrotation Yrotation
                      End Site
                      {
                        OFFSET -1.4888 -0.4091 -0.3416
                      }
                    }
                  }
                }
                JOINT RightHandThumb1
                {
                  OFFSET -1.833 -1.38751 1.3896
                  CHANNELS 3 Zrotation Xrotation Yrotation
                  JOINT RightHandThumb2
                  {
                    OFFSET -3.41299 -1.12099 2.5732
                    CHANNELS 3 Zrotation Xrotation Yrotation
                    JOINT RightHandThumb3
                    {
                      OFFSET -2.24741 -0.804108 1.6192
                      CHANNELS 3 Zrotation Xrotation Yrotation
                      End Site
                      {
                        OFFSET -1.6527 -0.5689 1.1317
                      }
                    }
                  }
                }
              }
            }
          }
        }
      }
    }
  }
  JOINT RightUpLeg
  {
    OFFSET -9.1966 3.8861 -0.7581
    CHANNELS 3 Zrotation Xrotation Yrotation
    JOINT RightLeg
    {
      OFFSET -0.7359 -41.0265 0
      CHANNELS 3 Zrotation Xrotation Yrotation
      JOINT RightFoot
      {
        OFFSET 0 -40.2855 0
        CHANNELS 3 Zrotation Xrotation Yrotation
        JOINT RightToeBase
        {
          OFFSET 0 -5.6122 11.7359
          CHANNELS 3 Zrotation Xrotation Yrotation
          End Site
          {
            OFFSET 0 0 7.8731
          }
        }
      }
    }
  }
  JOINT LeftUpLeg
  {
    OFFSET 9.1965 3.8864 -0.7581
    CHANNELS 3 Zrotation Xrotation Yrotation
    JOINT LeftLeg
    {
      OFFSET 0.7359 -41.0268 0
      CHANNELS 3 Zrotation Xrotation Yrotation
      JOINT LeftFoot
      {
        OFFSET 0 -40.2855 0
        CHANNELS 3 Zrotation Xrotation Yrotation
        JOINT LeftToeBase
        {
          OFFSET 0 -5.6122 11.7359
          CHANNELS 3 Zrotation Xrotation Yrotation
          End Site
          {
            OFFSET 0 0 7.8731
          }
        }
      }
    }
  }
}
MOTION
Frames:	5
Frame Time:	0.0333333
56.2346 -3.03447 -6.69723 -179.727 86.4608 179.472 -0.415017 -8.40764 -0.0304999 -0.848571 -16.8148 -0.12541 -0.848571 -16.8148 -0.12541 0.224847 -5.80429 -21.4957 20.6867 0.0539268 -1.69687 -8.00266 -0.194452 -0.00133125 -41.7638 -1.94125 -58.5215 25.775 -1.13708 -71.5114 14.1112 24.8633 1.07763 4.96962e-016 -6.64686e-016 -7.95139e-016 1.49089e-016 9.38015e-016 7.95139e-016 1.49089e-016 -6.27414e-016 -0 4.96962e-016 -6.64686e-016 -7.95139e-016 -0.0146274 -8.69364e-005 7.58181e-006 -2.48481e-016 -1.32316e-015 -7.95139e-016 4.96962e-016 -6.64686e-016 -7.95139e-016 -0.0187535 -0.00117425 5.52468e-005 4.96962e-017 6.95125e-015 1.59028e-015 4.96962e-016 -6.64686e-016 -7.95139e-016 -0.0122822 -0.00325029 0.000682021 -4.96962e-017 1.54679e-015 -0 4.96962e-016 -6.64686e-016 -7.95139e-016 1.49089e-016 9.38015e-016 7.95139e-016 1.49089e-016 -6.27414e-016 -0 7.99915 -0.194694 -0.00216267 41.7605 -1.94448 58.5177 -51.514 -10.9385 64.6588 17.4084 -1.11212 -7.72755 -7.51437e-009 -1.33899e-007 2.30295e-007 -5.49305e-007 -5.26118e-007 1.41858e-007 -9.47077e-008 -9.07099e-008 2.44583e-008 -7.51437e-009 -1.33899e-007 2.30295e-007 0.0150173 -8.83041e-005 4.97149e-007 -9.47076e-008 -9.07067e-008 2.44702e-008 -7.51437e-009 -1.33899e-007 2.30295e-007 0.0189976 -0.00119354 -6.57872e-005 -9.47073e-008 -9.0706e-008 2.44743e-008 -7.51437e-009 -1.33899e-007 2.30295e-007 0.0123008 -0.0032548 -0.000672131 -9.47064e-008 -9.07079e-008 2.44707e-008 -7.51437e-009 -1.33899e-007 2.30295e-007 -5.49305e-007 -5.26118e-007 1.41858e-007 -9.47077e-008 -9.07099e-008 2.44583e-008 -1.65883 -3.77384 -3.43964 58.4441 79.2964 -71.4426 -12.9962 15.9571 -3.4915 2.09258e-007 3.41681e-008 2.42304e-008 1.74434 -3.61862 3.0013 -87.851 80.1456 85.2861 16.6216 7.11972 14.7549 1.98785e-015 0 -0 
56.2357 -3.03496 -6.69766 -179.727 86.4608 179.472 -0.415017 -8.40764 -0.0304999 -0.848571 -16.8148 -0.12541 -0.84857 -16.8148 -0.12541 0.240805 -5.69428 -21.0852 20.2934 0.0577952 -1.66899 -8.00266 -0.194476 -0.0013356 -41.7638 -1.94127 -58.5214 26.2546 -1.35052 -71.4244 13.6787 24.3886 1.15006 2.98177e-016 -5.49764e-015 2.38542e-015 -1.98785e-016 -2.33572e-015 1.59028e-015 9.93923e-017 -5.5287e-015 1.59028e-015 2.98177e-016 -5.49764e-015 2.38542e-015 -0.0146103 -8.89028e-005 4.63724e-007 9.93923e-017 4.41053e-016 -2.38542e-015 2.98177e-016 -5.49764e-015 2.38542e-015 -0.0187659 -0.00117745 5.83541e-005 9.93923e-017 5.28022e-016 -1.59028e-015 2.98177e-016 -5.49764e-015 2.38542e-015 -0.012259 -0.00324507 0.000675836 2.18663e-015 -2.04375e-014 1.59028e-015 2.98177e-016 -5.49764e-015 2.38542e-015 -1.98785e-016 -2.33572e-015 1.59028e-015 9.93923e-017 -5.5287e-015 1.59028e-015 7.99915 -0.194721 -0.00215946 41.7605 -1.94449 58.5177 -51.5139 -10.9385 64.6588 17.4084 -1.11213 -7.72755 -1.06135e-007 2.50472e-008 -2.00944e-007 1.32591e-007 1.26994e-007 -3.42416e-008 1.74388e-007 -8.63784e-008 4.11671e-007 -1.06135e-007 2.50472e-008 -2.00944e-007 0.0150038 -9.07703e-005 7.63207e-006 -1.89415e-008 -1.81413e-008 4.89404e-009 -1.06135e-007 2.50472e-008 -2.00944e-007 0.019 -0.0011937 -6.58707e-005 -1.89415e-008 -1.81412e-008 4.89487e-009 -1.06135e-007 2.50472e-008 -2.00944e-007 0.0122999 -0.00325584 -0.000681492 -1.89413e-008 -1.81416e-008 4.89415e-009 -1.06135e-007 2.50472e-008 -2.00944e-007 1.32591e-007 1.26994e-007 -3.42416e-008 1.74388e-007 -8.63784e-008 4.11671e-007 -1.65756 -3.77024 -3.43868 58.7316 79.2374 -71.7293 -12.9943 15.9568 -3.49054 -4.18511e-007 -6.82696e-008 -4.8563e-008 1.73247 -3.60246 3.01139 -89.2601 79.8817 86.7383 16.6155 7.11518 14.7589 -1.39149e-015 -7.95139e-016 4.77083e-015 
56.2368 -3.03545 -6.69808 -179.727 86.4608 179.472 -0.415017 -8.40764 -0.0304999 -0.848571 -16.8148 -0.12541 -0.84857 -16.8148 -0.12541 0.25599 -5.58407 -20.6747 19.9 0.0614718 -1.64107 -8.00266 -0.194476 -0.0013356 -41.7638 -1.94127 -58.5214 26.735 -1.5634 -71.3355 13.248 23.913 1.21839 -4.96119e-008 9.61856e-008 -4.79784e-007 9.93923e-017 6.21202e-017 -0 -2.98177e-016 4.34841e-017 -1.59028e-015 -4.96119e-008 9.61856e-008 -4.79784e-007 -0.0146107 -8.88308e-005 4.89563e-007 0 3.36692e-015 -0 -4.96119e-008 9.61856e-008 -4.79784e-007 -0.0187825 -0.00117793 5.28104e-005 -7.95139e-016 -3.97569e-016 -1.35174e-014 -4.96119e-008 9.61856e-008 -4.79784e-007 -0.0122946 -0.00325423 0.000671897 -2.36213e-032 1.70209e-015 7.95139e-016 -4.96119e-008 9.61856e-008 -4.79784e-007 9.93923e-017 6.21202e-017 -0 -2.98177e-016 4.34841e-017 -1.59028e-015 7.99915 -0.194721 -0.00215946 41.7605 -1.94449 58.5177 -51.5139 -10.9385 64.6588 17.4084 -1.11213 -7.72755 -1.06135e-007 2.50472e-008 -2.00944e-007 1.32591e-007 1.26994e-007 -3.42416e-008 1.74388e-007 -8.63784e-008 4.11671e-007 -1.06135e-007 2.50472e-008 -2.00944e-007 0.0150038 -9.07703e-005 7.63207e-006 -1.89415e-008 -1.81413e-008 4.89404e-009 -1.06135e-007 2.50472e-008 -2.00944e-007 0.0190082 -0.00119032 -5.77892e-005 -1.89414e-008 -1.81412e-008 4.89486e-009 -1.06135e-007 2.50472e-008 -2.00944e-007 0.0122999 -0.00325584 -0.000681492 -1.89413e-008 -1.81416e-008 4.89415e-009 -1.06135e-007 2.50472e-008 -2.00944e-007 1.32591e-007 1.26994e-007 -3.42416e-008 1.74388e-007 -8.63784e-008 4.11671e-007 -1.65629 -3.76611 -3.43772 59.0136 79.1777 -72.0105 -12.9925 15.9564 -3.48956 5.77471e-007 8.34022e-008 2.94517e-006 1.72034 -3.58773 3.02141 -90.6036 79.6118 88.1251 16.6093 7.11067 14.7629 -3.69826e-007 4.75536e-007 -3.90135e-008 
56.2379 -3.03593 -6.6985 -179.727 86.4608 179.472 -0.415017 -8.40764 -0.0304998 -0.848571 -16.8148 -0.12541 -0.848571 -16.8148 -0.12541 0.270334 -5.47388 -20.264 19.5063 0.064964 -1.61311 -8.00266 -0.194452 -0.0013321 -41.7638 -1.94125 -58.5215 27.2162 -1.77572 -71.2448 12.819 23.4363 1.28259 9.93923e-017 -1.70209e-015 -1.59028e-015 9.93923e-017 -1.71452e-015 -1.59028e-015 -1.98785e-016 -1.73937e-015 -2.38542e-015 9.93923e-017 -1.70209e-015 -1.59028e-015 -0.0146219 -8.92185e-005 1.34721e-006 -2.98177e-016 -3.62782e-015 -3.18055e-015 9.93923e-017 -1.70209e-015 -1.59028e-015 -0.0187473 -0.00117525 5.5688e-005 -5.69635e-008 8.96103e-008 -4.77719e-007 9.93923e-017 -1.70209e-015 -1.59028e-015 -0.0122591 -0.00324546 0.000674082 -5.64211e-008 8.94079e-008 -4.77671e-007 9.93923e-017 -1.70209e-015 -1.59028e-015 9.93923e-017 -1.71452e-015 -1.59028e-015 -1.98785e-016 -1.73937e-015 -2.38542e-015 7.99915 -0.194694 -0.00216332 41.7605 -1.94451 58.5177 -51.5139 -10.9385 64.6588 17.4084 -1.11212 -7.72753 1.89415e-007 1.8142e-007 -4.89165e-008 1.89415e-007 1.8142e-007 -4.89165e-008 1.89415e-007 1.8142e-007 -4.89165e-008 1.89415e-007 1.8142e-007 -4.89165e-008 0.0150167 -9.11846e-005 9.5258e-007 1.89415e-007 1.81413e-007 -4.89404e-008 1.89415e-007 1.8142e-007 -4.89165e-008 0.0189979 -0.00119327 -6.5859e-005 1.89415e-007 1.81412e-007 -4.89486e-008 1.89415e-007 1.8142e-007 -4.89165e-008 0.0122991 -0.00325652 -0.000681501 1.89413e-007 1.81416e-007 -4.89414e-008 1.89415e-007 1.8142e-007 -4.89165e-008 1.89415e-007 1.8142e-007 -4.89165e-008 1.89415e-007 1.8142e-007 -4.89165e-008 -1.65502 -3.7621 -3.43677 59.293 79.1179 -72.2891 -12.9907 15.956 -3.4886 -2.09249e-007 -3.40681e-008 -2.43837e-008 1.70813 -3.57067 3.03144 -91.8652 79.3364 89.4296 16.6029 7.10617 14.767 -4.41391e-032 -1.59028e-015 -1.59028e-015 
56.239 -3.03639 -6.69891 -179.727 86.4608 179.472 -0.415017 -8.40764 -0.0304999 -0.848571 -16.8148 -0.12541 -0.84857 -16.8148 -0.12541 0.283946 -5.36318 -19.8533 19.1126 0.0682716 -1.58513 -8.00266 -0.194476 -0.0013356 -41.7638 -1.94126 -58.5215 27.6981 -1.98741 -71.1522 12.3917 22.9587 1.34275 -6.11153e-008 8.30375e-008 -4.75697e-007 -9.93923e-017 -4.16205e-015 -0 6.11153e-008 -8.30375e-008 4.75697e-007 -6.11153e-008 8.30375e-008 -4.75697e-007 -0.0146366 -8.9977e-005 -9.69286e-007 9.93923e-016 -2.46369e-014 -1.51076e-014 -6.11153e-008 8.30375e-008 -4.75697e-007 -0.0187651 -0.00117706 5.55514e-005 -1.98785e-016 -5.55355e-015 -0 -6.11153e-008 8.30375e-008 -4.75697e-007 -0.0122686 -0.00324857 0.00067695 2.53455e-032 -6.08778e-016 2.38542e-015 -6.11153e-008 8.30375e-008 -4.75697e-007 -9.93923e-017 -4.16205e-015 -0 6.11153e-008 -8.30375e-008 4.75697e-007 7.99915 -0.194721 -0.00215946 41.7605 -1.94449 58.5177 -51.5139 -10.9385 64.6588 17.4084 -1.11213 -7.72755 -1.06135e-007 2.50472e-008 -2.00944e-007 1.32591e-007 1.26994e-007 -3.42416e-008 1.74388e-007 -8.63784e-008 4.11671e-007 -1.06135e-007 2.50472e-008 -2.00944e-007 0.0150038 -9.07703e-005 7.63207e-006 -1.89415e-008 -1.81413e-008 4.89404e-009 -1.06135e-007 2.50472e-008 -2.00944e-007 0.019 -0.0011937 -6.58707e-005 -1.89415e-008 -1.81412e-008 4.89487e-009 -1.06135e-007 2.50472e-008 -2.00944e-007 0.0122999 -0.00325584 -0.000681492 -1.89413e-008 -1.81416e-008 4.89415e-009 -1.06135e-007 2.50472e-008 -2.00944e-007 1.32591e-007 1.26994e-007 -3.42416e-008 1.74388e-007 -8.63784e-008 4.11671e-007 -1.65376 -3.75799 -3.4358 59.5689 79.0578 -72.5642 -12.9888 15.9556 -3.48765 2.82352e-007 9.05052e-007 3.14503e-008 1.69568 -3.55548 3.04139 -93.0713 79.0558 90.679 16.5963 7.10166 14.7713 -1.41529e-008 -3.24884e-008 8.44627e-007 
